<svg width="16" height="16" viewBox="0 0 16 16" fill="none" xmlns="http://www.w3.org/2000/svg">
<path fill-rule="evenodd" clip-rule="evenodd" d="M1.54839 5.41952H3.0966C3.09682 5.7033 3.25364 5.97644 3.52473 6.11198C3.90717 6.3032 4.37221 6.14819 4.56342 5.76575L4.73654 5.41952H10.7473L10.9204 5.76575C11.1117 6.14819 11.5767 6.3032 11.9591 6.11198C12.2302 5.97644 12.3871 5.7033 12.3873 5.41952H13.9355V6.96791H1.54839V5.41952ZM11.7043 3.87114H13.9355C14.7906 3.87114 15.4839 4.56438 15.4839 5.41953V6.96791C15.4839 7.61825 15.0829 8.17495 14.5147 8.4043C14.5174 8.44129 14.5187 8.47864 14.5187 8.5163C14.5187 8.62927 14.5064 8.74191 14.4819 8.85219L13.2776 14.2715C13.1201 14.98 12.4918 15.484 11.7661 15.484H3.7178C2.99207 15.484 2.36372 14.98 2.20628 14.2715L1.00198 8.85219C0.968464 8.70135 0.958186 8.55076 0.96877 8.40416C0.400774 8.17472 0 7.61812 0 6.96791V5.41953C0 4.56438 0.693236 3.87114 1.54839 3.87114H3.77958L5.50109 0.428133C5.6923 0.0456983 6.15734 -0.109314 6.53978 0.0819034C6.92221 0.273121 7.07722 0.738158 6.88601 1.12059L5.51073 3.87114H9.97314L8.59787 1.12059C8.40665 0.738158 8.56166 0.273121 8.9441 0.0819034C9.32653 -0.109314 9.79157 0.0456983 9.98279 0.428133L11.7043 3.87114ZM3.7178 13.9357L2.5135 8.5163H12.9703L11.766 13.9357H3.7178Z" fill="#8252F4"/>
</svg>
