<?xml version="1.0" encoding="utf-8"?><svg width="16" height="16" fill="none" xmlns="http://www.w3.org/2000/svg" viewBox="0 0 16 16"><path fill-rule="evenodd" clip-rule="evenodd" d="M1.548 5.42h1.549a.774.774 0 001.466.346l.174-.346h6.01l.173.346a.774.774 0 001.467-.346h1.548v1.548H1.548V5.42zM11.704 3.87h2.231c.856 0 1.549.693 1.549 1.549v1.548c0 .65-.401 1.207-.97 1.436a1.538 1.538 0 01-.032.448l-1.204 5.42a1.548 1.548 0 01-1.512 1.212H3.718a1.548 1.548 0 01-1.512-1.213L1.002 8.852a1.549 1.549 0 01-.033-.448A1.549 1.549 0 010 6.968V5.42C0 4.564.693 3.87 1.548 3.87H3.78L5.5.428a.774.774 0 111.385.693L5.511 3.87h4.462l-1.375-2.75A.774.774 0 119.983.428l1.721 3.443zM3.718 13.936l-1.204-5.42H12.97l-1.204 5.42H3.718z" fill="#8252F4"/></svg>