<?xml version="1.0" encoding="utf-8"?><svg viewBox="0 0 22 22" xmlns="http://www.w3.org/2000/svg" xmlns:xlink="http://www.w3.org/1999/xlink"><style>:root>svg{display:none}:root>svg:target{display:block}</style><svg fill="none" viewBox="0 0 16 16" id="cart" xmlns="http://www.w3.org/2000/svg"><path fill-rule="evenodd" clip-rule="evenodd" d="M1.548 5.42h1.549a.774.774 0 001.466.346l.174-.346h6.01l.173.346a.774.774 0 001.467-.346h1.548v1.548H1.548V5.42zM11.704 3.87h2.231c.856 0 1.549.693 1.549 1.549v1.548c0 .65-.401 1.207-.97 1.436a1.538 1.538 0 01-.032.448l-1.204 5.42a1.548 1.548 0 01-1.512 1.212H3.718a1.548 1.548 0 01-1.512-1.213L1.002 8.852a1.549 1.549 0 01-.033-.448A1.549 1.549 0 010 6.968V5.42C0 4.564.693 3.87 1.548 3.87H3.78L5.5.428a.774.774 0 111.385.693L5.511 3.87h4.462l-1.375-2.75A.774.774 0 119.983.428l1.721 3.443zM3.718 13.936l-1.204-5.42H12.97l-1.204 5.42H3.718z" fill="#8252F4"/></svg><svg fill="none" viewBox="0 0 22 22" id="login" xmlns="http://www.w3.org/2000/svg"><path fill-rule="evenodd" clip-rule="evenodd" d="M11 22C4.925 22 0 17.075 0 11S4.925 0 11 0s11 4.925 11 11-4.925 11-11 11zm7.4-5.875a9 9 0 10-14.799 0C4.726 14.638 7.37 14 11 14c3.63 0 6.274.638 7.4 2.125zm-1.435 1.615C16.672 16.687 14.569 16 11 16c-3.57 0-5.672.687-5.965 1.74A8.966 8.966 0 0011 20a8.966 8.966 0 005.965-2.26zM11 14c-2.24 0-4-1.573-4-5 0-2.244 1.58-4 4-4 2.414 0 4 1.922 4 4.2 0 3.28-1.782 4.8-4 4.8zM9 9c0 2.27.818 3 2 3 1.178 0 2-.702 2-2.8 0-1.25-.784-2.2-2-2.2-1.266 0-2 .816-2 2z" fill="#8252F4"/></svg><svg fill="none" viewBox="0 0 22 22" id="option" xmlns="http://www.w3.org/2000/svg"><path fill-rule="evenodd" clip-rule="evenodd" d="M17.656 19.897l2.217-2.217-.78-2.837.34-.813L22 12.582V9.446l-2.56-1.454-.335-.811.791-2.839-2.219-2.215-2.837.78-.81-.34L12.58 0H9.446L7.991 2.56l-.811.334-2.838-.791-2.215 2.215.78 2.838-.34.81L0 9.416v3.134l2.558 1.458.335.811-.791 2.838 2.216 2.216 2.838-.78.81.34 1.45 2.566h3.134l1.457-2.558.811-.334 2.838.79zm.197-7.271l-.872 2.082.655 2.38-.568.569-2.376-.662-2.083.86-1.222 2.144h-.804L9.37 17.853l-2.08-.872-2.382.655-.567-.567.662-2.376-.86-2.083L2 11.388v-.805l2.147-1.212.872-2.08-.655-2.382.566-.566 2.376.663 2.084-.86L10.61 2h.803l1.211 2.147 2.08.872 2.383-.655.569.568-.662 2.375.86 2.084L20 10.61v.803l-2.147 1.212zM11 15a4 4 0 110-8 4 4 0 010 8zm2-4a2 2 0 11-4 0 2 2 0 014 0z" fill="#707584"/></svg></svg>